<?xml version="1.0" encoding="UTF-8" standalone="no"?>
<!-- Created with Inkscape (http://www.inkscape.org/) -->

<svg
   xmlns:dc="http://purl.org/dc/elements/1.1/"
   xmlns:cc="http://creativecommons.org/ns#"
   xmlns:rdf="http://www.w3.org/1999/02/22-rdf-syntax-ns#"
   xmlns:svg="http://www.w3.org/2000/svg"
   xmlns="http://www.w3.org/2000/svg"
   xmlns:sodipodi="http://sodipodi.sourceforge.net/DTD/sodipodi-0.dtd"
   xmlns:inkscape="http://www.inkscape.org/namespaces/inkscape"
   width="210mm"
   height="297mm"
   viewBox="0 0 744.09448819 1052.3622047"
   id="svg2"
   version="1.1"
   inkscape:version="0.91 r13725"
   sodipodi:docname="opossum.svg">
  <defs
     id="defs4" />
  <sodipodi:namedview
     id="base"
     pagecolor="#ffffff"
     bordercolor="#666666"
     borderopacity="1.0"
     inkscape:pageopacity="0.0"
     inkscape:pageshadow="2"
     inkscape:zoom="0.54827972"
     inkscape:cx="23.288843"
     inkscape:cy="88.126678"
     inkscape:document-units="px"
     inkscape:current-layer="layer1"
     showgrid="false"
     inkscape:window-width="1364"
     inkscape:window-height="728"
     inkscape:window-x="0"
     inkscape:window-y="38"
     inkscape:window-maximized="1"
     showguides="true"
     inkscape:guide-bbox="true">
    <sodipodi:guide
       position="357.48176,517.07184"
       orientation="0,1"
       id="guide4239" />
    <sodipodi:guide
       position="225.70596,609.63409"
       orientation="0,1"
       id="guide4241" />
    <sodipodi:guide
       position="337.41901,531.66294"
       orientation="0,1"
       id="guide4489" />
    <sodipodi:guide
       position="336.60715,580.35716"
       orientation="1,0"
       id="guide4495" />
    <sodipodi:guide
       position="420.43651,609.63409"
       orientation="0,1"
       id="guide4497" />
  </sodipodi:namedview>
  <metadata
     id="metadata7">
    <rdf:RDF>
      <cc:Work
         rdf:about="">
        <dc:format>image/svg+xml</dc:format>
        <dc:type
           rdf:resource="http://purl.org/dc/dcmitype/StillImage" />
        <dc:title></dc:title>
      </cc:Work>
    </rdf:RDF>
  </metadata>
  <g
     inkscape:label="Layer 1"
     inkscape:groupmode="layer"
     id="layer1">
    <g
       id="g4221"
       transform="matrix(0.36053012,0,0,0.36053012,240.4394,226.35651)">
      <path
         id="path3349"
         d="m 236.01172,168.92969 c -6.54292,0 -40.35587,47.20472 -51.17578,58.8457 -3.70918,-6.04201 -4.92578,-12.4085 -4.92578,-21.44531 0,-6.07719 -1.28907,-11.94574 -1.28907,-18.05469 0,-0.85979 0.76902,-2.96459 0,-2.58008 -5.14014,2.57007 -12.6638,32.4295 -13.54101,37.40039 -0.57246,3.24391 -0.8402,7.20711 -0.99024,10.39844 -0.6777,0.10233 -1.46521,0.20111 -2.16601,0.30274 -2.39095,-12.30008 -2.93834,-39.31529 -7.16211,-28.75586 -1.95784,4.89458 -4.44391,18.8636 -7.23438,30.64843 -3.03704,0.36766 -6.14913,0.73513 -9.33203,1.09961 -0.86181,-15.97551 -1.48828,-37.62785 -1.48828,-40.13086 0,-5.6257 -8.15358,7.8113 -11.60742,12.25196 -6.82153,8.77053 -5.17034,20.40328 -8.33399,30.30078 -1.30771,0.14859 -2.62253,0.29781 -3.91796,0.44726 l 0,-4.31054 c 0,-11.58839 2.97276,-22.34523 3.20117,-33.48828 -2.0184,4.02422 -5.08977,8.39731 -7.07031,12.85351 -3.40914,7.67057 -8.74375,13.90196 -14.832036,19.99023 -1.454268,1.45427 -5.001959,5.28711 -7.09375,6.44922 -1.218916,0.67718 -4.342457,0.0194 -5.529296,0.0918 -0.134371,0.34653 -0.240666,0.58551 -0.273438,0.55274 -0.39035,-0.39035 -0.196431,-0.52409 0.273438,-0.55274 0.641264,-1.65377 2.316325,-7.17365 3.988281,-12.73047 -4.64846,8.31017 -12.502207,16.14795 -19.738281,18.44141 l 3.33789,-0.29102 c -2.69809,0.86688 -4.480956,1.77246 -4.960937,2.73242 -0.647376,1.29475 -1.624883,2.51725 -2.677735,3.62696 -1.089131,2.96502 -2.807866,5.03711 -5.53125,5.03711 -0.639261,0 2.730376,-2.085 5.53125,-5.03711 2.30177,-6.26629 1.765625,-16.56771 1.765625,-20.04297 0,-33.37112 -18.947093,-49.30659 -47.876953,-56.53906 -5.5505299,-1.38763 -25.1350964,-7.26839 -28.726562,-5.47266 -17.991672,8.99584 -27.332848,14.54069 -36.933594,33.74219 -3.258636,6.51727 -4.143298,15.20404 -5.927734,22.34179 -0.701784,2.80713 0.912225,6.38442 0,9.1211 -0.503497,1.51049 -3.526977,7.23321 -4.560547,7.75 -1.472486,0.73624 -7.104461,-1.29108 -7.75,0 -0.762264,1.52452 0.521584,8.40229 -0.91211,9.11914 -3.307891,1.65394 -6.516162,-4.32316 -7.751953,-6.38281 -0.524572,-0.87429 -0.455244,-3.19231 -1.367187,-2.73633 -3.178947,1.58947 -4.026541,7.11886 -7.296875,8.20898 -3.296004,1.09866 -2.955866,-8.66406 -5.927735,-8.66406 -1.351854,0 -3.047803,5.37758 -3.191406,6.38281 -0.107474,0.75231 0.759953,2.28125 0,2.28125 -0.610861,0 -3.78486,-7.84748 -4.560547,-3.19336 -0.339551,2.03731 -0.614178,8.82316 -1.822268,10.03125 -3.26203,3.26203 2.305791,13.45828 -0.45703,12.76758 -6.75262,-1.68816 -8.11171,-10.0552 -11.85547,-15.04687 -2.1492,-2.8656 -3.62836,6.83984 -4.10351,6.83984 -1.93979,0 -3.40267,-7.63004 -5.47071,-8.66406 -2.99102,-1.49551 -5.59669,11.27634 -6.38476,10.48828 -0.67759,-0.67759 -0.89783,-9.11914 -1.82422,-9.11914 -5.7298,0 -4.7233,14.71746 -5.4707,13.22265 -0.69783,-1.39565 -2.17375,-8.20703 -4.10352,-8.20703 -1.80939,0 -6.03064,12.69343 -7.29492,14.58985 -1.87135,2.80702 -3.43433,-3.28699 -5.01758,-0.91211 -3.04556,4.56834 -4.46838,9.51447 -4.51758,9.88086 -0.005,0.0735 -0.0172,0.12849 -0.041,0.15234 -0.004,0.004 0.0387,-0.13534 0.041,-0.15234 0.0638,-1.03571 -1.72857,-6.50575 -3.68945,-2.58399 -12.47389,24.94778 -51.1996,29.74654 -68.33203,51.13086 -15.65417,11.74062 -21.91991,33.91536 -38.75781,45.14063 -13.16266,8.77511 -24.56566,20.17658 -37.39063,28.72656 -2.16487,1.44325 -3.57914,4.29837 -5.92773,5.47266 -8.66804,4.33402 -17.09246,1.93066 -23.70899,11.85546 -8.38896,12.58343 3.85158,32.47592 16.8711,35.10938 10.41307,3.95924 29.79645,6.24571 41.52148,3.31445 41.04461,-10.26115 49.20461,-7.67072 87.69727,5.16016 18.64244,6.21415 75.43824,3.86914 96.726558,3.86914 11.267117,0 57.518084,-9.20165 58.035156,-9.0293 2.474405,0.82481 2.595031,3.96614 1.777344,7.66992 l -1.777344,0.0684 c -0.630706,1.23442 -1.48115,4.2043 -2.171875,7.77735 -8.955884,6.11199 -18.040599,12.11328 -28.666015,12.11328 -21.5648,0 -48.860584,7.16779 -68.396484,13.67969 -11.5119,3.8373 -27.60201,0.33175 -26.44531,0.91015 12.0853,6.0426 32.83007,4.94447 32.83007,6.38477 0,4.8873 -19.15039,7.54236 -19.15039,10.94336 0,1.5199 3.0387,0 4.5586,0 5.2077,0 11.31341,0.8504 16.41601,0 14.0644,-2.3441 27.930523,-1.64574 41.949222,-3.64844 4.963001,-0.709 18.134844,-7.19148 14.589844,-3.64648 -0.3796,0.3795 -3.948194,8.50166 -4.558594,10.94336 -4.2331,16.93229 41.277047,-11.06338 44.685547,-12.76758 8.791746,-4.39588 21.2801321,-6.31315 30.2656254,-10.78125 42.7226356,0.0495 108.2744556,-7.80702 151.9140656,-19.50391 6.62114,6.11752 13.75586,12.18019 13.75586,17.81836 0,0.1267 -73.616488,13.52164 -68.396488,29.18164 0.378,1.1341 42.962668,0.91211 46.509768,0.91211 1.7557,0 91.60231,5.37639 81.16211,-15.50391 -5.5516,-11.1034 -21.88672,-14.86358 -21.88672,-29.18164 0,-1.20885 -0.10109,-2.41894 -0.26953,-3.63476 46.84715,1.6436 82.93809,8.26591 132.73437,13.79883 7.11656,0.79073 14.25113,-0.0933 21.33789,-1.30665 2.60818,3.79059 4.45939,7.44424 4.16992,10.76172 -0.011,0.12632 -64.27187,7.97702 -61.16015,23.98047 0.22532,1.15897 36.743,4.12145 39.7832,4.38672 1.5048,0.13131 78.04389,12.21178 70.91211,-9.38672 -3.79232,-11.48531 -17.46627,-16.45725 -16.2207,-30.73242 0.0302,-0.3459 0.0416,-0.69363 0.0586,-1.04101 0.79509,0.2266 1.5889,0.47053 2.37891,0.75781 27.25155,0 58.15633,4.13081 83.18359,-8.38281 0.2919,-0.14595 4.40274,0.1149 10.4668,0.52734 7.34481,7.5838 18.30078,15.21465 18.30078,22.19726 0,0.1267 -73.61453,13.52165 -68.39453,29.18164 0.378,1.1341 42.96071,0.91211 46.50781,0.91211 1.7557,0 91.60426,5.37835 81.16406,-15.50195 -5.5516,-11.1034 -21.88672,-14.86553 -21.88672,-29.18359 0,-1.81252 -0.2246,-3.62816 -0.57421,-5.46094 2.50409,-0.14602 4.5699,-0.38222 5.99414,-0.73828 21.02598,-5.25649 25.92197,-18.95754 49.65234,-21.92383 3.88384,-0.48548 14.50832,2.41869 18.05664,0.64453 15.66264,-7.83132 45.31106,-5.1582 64.48438,-5.1582 10.48745,0 25.21151,5.56621 36.10937,1.93359 7.92505,-2.64168 32.39483,1.40475 37.40234,-1.93359 13.28442,-8.85628 70.0246,1.06604 88.98829,-4.51367 4.56017,0 8.40721,-2.01893 12.89648,-2.58008 27.04167,-3.38021 72.64062,0.91113 97.37109,7.09375 17.86853,4.46713 70.87226,-3.22461 88.98826,-3.22461 11.236,0 23.1192,-2.58008 33.5313,-2.58008 1.3626,0 10.3164,0.77974 10.3164,0 0,-2.94067 -40.8655,-10.37615 -47.0723,-9.02734 -25.671,-8.55699 -59.57266,2.91827 -87.05467,-2.57813 -14.94835,-2.98968 -31.16325,-2.05042 -46.42774,-3.22461 -6.02638,-0.46357 -10.95965,-1.50413 -16.12109,-3.22461 -8.13969,-2.71323 -114.3403,-2.58007 -128.96875,-2.58007 -20.10781,0 -39.69097,-0.64454 -59.9707,-0.64454 -0.76624,0 -6.22896,0.43663 -6.44727,0 -2.16599,-4.33197 -1.41018,-21.03901 0.64453,-25.14843 0.18905,-0.37811 4.16173,-9.02735 3.22461,-9.02735 -9.97719,0 -21.98104,15.35812 -30.95312,19.34571 -4.21804,1.87468 3.22461,-12.6371 3.22461,-17.41211 0,-0.34319 -1.90656,3.20528 -3.86914,4.51367 -0.99538,0.66358 -2.01812,1.19763 -2.98829,1.72851 -2.3137,3.80981 -4.75,9.60342 -4.75,6.6543 0,-3.84144 2.16965,-5.24229 4.75,-6.6543 0.5876,-0.96754 1.16962,-1.84344 1.69922,-2.37304 4.81933,-4.81933 14.83008,-19.41227 14.83008,-27.08203 0,-2.7835 -16.87957,8.87486 -29.01758,6.44726 -7.12784,-1.42557 12.94455,-28.18084 12.25196,-30.95117 -0.41995,-1.67984 -21.74845,2.73451 -23.21289,3.22266 -1.50836,0.50278 -8.08338,6.4055 -9.0293,4.51367 -3.34785,-6.69569 19.5515,-22.15676 15.47656,-30.30664 -2.70618,-5.41237 -25.05433,4.54569 -30.95117,2.58008 -3.90934,-1.30312 9.67187,-15.91182 9.67187,-18.70118 0,-1.1179 -12.32574,5.57941 -13.54101,1.9336 -0.57471,-1.72414 9.42903,-14.06511 5.80273,-12.25196 -5.96933,2.98467 -23.53689,16.6598 -13.54101,0 0.22295,-0.37159 3.91977,-8.38281 1.28906,-8.38281 -3.02991,0 -7.20006,6.40537 -9.67188,8.38281 -0.0971,0.0777 -0.29106,0.22052 -0.42968,0.32227 -0.36555,0.96919 -0.84474,1.61328 -1.50586,1.61328 -0.78763,0 0.62764,-0.96868 1.50586,-1.61328 1.02727,-2.72367 1.13824,-8.0725 1.71875,-9.34961 1.11976,-2.46346 9.38604,-12.03812 7.09375,-15.47656 -1.78481,-2.67721 -14.49578,8.89011 -17.41211,4.51562 -6.67476,-10.01215 29.17308,-20.11316 3.22461,-16.12109 -2.274,0.34985 -23.77075,6.62255 -25.79297,2.57812 -2.73165,-5.46331 9.47006,-35.24446 5.1582,-37.40039 -5.33605,-2.66802 -9.54258,10.37656 -15.47656,10.31836 -2.33821,3.50732 -20.51411,27.32335 -25.14844,18.05469 -0.99366,-1.98732 0.74551,-20.63476 0,-20.63476 -4.87486,-10e-6 -6.65281,19.24195 -18.05469,13.54101 -1.69196,-0.84598 6.3617,-14.74449 7.73829,-16.12109 0.60128,-0.60127 10.25243,-1.9336 7.09179,-1.9336 -12.97179,0 -31.81614,0.93221 -44.49414,5.15821 -5.69767,1.89922 -12.80275,7.73828 -19.34375,7.73828 -1.19289,0 5.194,-27.72852 5.15821,-27.72852 -8.46244,0 -25.59252,17.04531 -33.53126,21.2793 -7.13306,3.8043 -11.71306,3.43588 -11.60742,3.22461 0.42852,-0.85705 6.67021,-16.1211 5.15821,-16.1211 -6.41186,0 -13.6233,15.13471 -19.99024,13.54297 -0.84462,-0.21115 0.0591,-33.08317 -3.22461,-34.17773 -1.33777,-0.44593 -10.04388,12.45784 -12.20312,16.5 0.0979,0.43085 0.10189,0.75944 -0.0488,0.91016 -0.67112,0.67112 -0.53947,0.19115 0.0488,-0.91016 -0.49573,-2.18101 -3.62577,-7.24059 -3.91797,-8.11719 -1.47912,-4.43735 1.13714,-10.28154 0,-14.83008 -0.077,-0.30791 -9.00129,18.06403 -12.89649,16.76563 -2.93905,-0.97969 1.17856,-13.65348 -0.64453,-15.47656 -1.51746,-1.51747 -17.49693,19.3457 -18.70117,19.3457 -2.79287,0 -1.39466,-20.74232 -3.22266,-22.57031 -1.02568,-1.02569 -29.01231,18.38251 -37.40234,14.1875 -7.60486,-3.80243 -0.78385,-24.25228 -6.44726,-27.08399 -5.55009,-2.77504 -28.2026,19.19142 -32.88672,21.92383 -27.36345,15.96201 -3.80067,-13.94852 -12.25196,-16.76563 -4.67247,-1.55747 -18.71596,23.8658 -21.28125,25.14844 -0.27485,0.13743 9.82415,-27.60349 5.16016,-26.4375 -7.97533,1.99384 -27.20546,27.0213 -28.37305,26.4375 -4.43651,-2.21825 19.87061,-50.29687 13.54102,-50.29687 z M 85.511719,228.51367 c 2.526691,-4.51703 4.121093,-9.17222 4.121093,-13.15625 0,-0.60809 -2.04592,6.25933 -4.121093,13.15625 z m 30.537111,-26.65429 c 0.007,-0.0143 0.0163,-0.0287 0.0234,-0.043 0.15457,-0.30914 0,-3.2244 0,-1.28907 0,0.44505 -0.0144,0.88829 -0.0234,1.33204 z"
         style="fill:#000000;fill-rule:evenodd;stroke:#000000;stroke-width:1px;stroke-linecap:butt;stroke-linejoin:miter;stroke-opacity:1"
         inkscape:connector-curvature="0" />
      <path
         inkscape:connector-curvature="0"
         id="path3383"
         d="m -107.72687,304.25629 c -43.76762,18.66804 15.028304,65.91082 41.850842,48.52245 8.676136,-5.62452 8.048247,-13.05914 8.048247,-21.91338 0,-10.21671 -2.288067,-26.15631 -12.877193,-31.3048 -15.147184,-7.36466 -47.959756,4.69573 -37.021896,4.69573 z"
         style="fill:#ffffff;fill-rule:evenodd;stroke:#ffffff;stroke-width:1.74055684px;stroke-linecap:butt;stroke-linejoin:miter;stroke-opacity:1" />
      <path
         sodipodi:nodetypes="csssssc"
         inkscape:connector-curvature="0"
         id="path3385"
         d="m -261.21182,458.72543 c 11.92232,-0.76361 59.10133,-7.71474 97.96509,-16.07973 25.88162,-5.57073 49.07413,-14.09634 52.05913,-13.33006 7.86615,2.01933 27.361335,11.68353 31.36869,17.85594 8.077404,12.44131 -31.74489,2.61098 -39.26506,2.61098 -39.96608,0 -76.81509,8.75435 -116.64535,8.75435 -9.77326,0 -48.21494,8.94199 -25.4825,0.18852 z"
         style="fill:#ffffff;fill-rule:evenodd;stroke:#ffffff;stroke-width:1.31245196px;stroke-linecap:butt;stroke-linejoin:miter;stroke-opacity:1" />
      <path
         inkscape:connector-curvature="0"
         id="path3383-1"
         d="m -206.73564,307.13615 c -34.6618,15.19859 11.90169,53.6613 33.14382,39.50455 6.87106,-4.5792 6.37381,-10.63209 6.37381,-17.84076 0,-8.31794 -1.81204,-21.29517 -10.19809,-25.48681 -11.99583,-5.99594 -37.98178,3.82302 -29.31954,3.82302 z"
         style="fill:#ffffff;fill-rule:evenodd;stroke:#000000;stroke-width:8.71373463;stroke-linecap:butt;stroke-linejoin:miter;stroke-miterlimit:4;stroke-dasharray:none;stroke-opacity:1" />
    </g>
    <path
       style="opacity:1;fill:#000000;fill-opacity:1;stroke:#000000;stroke-width:3.47463441;stroke-miterlimit:4;stroke-dasharray:none;stroke-opacity:1"
       id="path4229"
       d="m 245.5732,442.44974 c 1.8556,1.79751 4.08271,3.11266 6.15169,4.62754 2.40495,1.92533 5.06097,3.48629 7.389,5.50988 2.34324,2.11612 3.91808,4.91355 5.73194,7.47898 1.92783,2.7058 2.95531,5.83375 3.95423,8.97907 1.14398,3.38049 2.19364,6.79273 3.00354,10.27389 0.39599,1.89132 0.62733,3.81014 0.81098,5.73299 0,0 -10.12859,5.3833 -10.12859,5.3833 l 0,0 c -0.10681,-1.89053 -0.25427,-3.78151 -0.62442,-5.64096 -0.73942,-3.46243 -1.78888,-6.83578 -2.9064,-10.1882 -1.06031,-2.99181 -1.99112,-6.04178 -3.84767,-8.65136 -1.74962,-2.49418 -3.30695,-5.2055 -5.61339,-7.21471 -2.32892,-1.96601 -4.9159,-3.56611 -7.32267,-5.4286 -2.11981,-1.45936 -4.2406,-2.91649 -6.33262,-4.41623 0,0 9.73438,-6.44559 9.73438,-6.44559 z"
       inkscape:connector-curvature="0" />
    <path
       style="opacity:1;fill:#000000;fill-opacity:1;stroke:#000000;stroke-width:3.42889714;stroke-miterlimit:4;stroke-dasharray:none;stroke-opacity:1"
       id="path4231"
       d="m 283.06218,441.52949 c 0.30356,3.85467 0.34702,7.72358 0.39145,11.58786 -0.0832,3.65673 -0.35981,7.37757 -1.14873,10.96235 -0.41949,1.90607 -1.00335,3.55301 -1.60434,5.40638 -1.80349,4.90663 -3.85066,9.73471 -6.07884,14.46673 -1.50675,3.31715 -3.15122,6.5717 -4.23901,10.05411 -0.61296,2.12559 -0.73288,4.3296 -0.79983,6.52509 -0.10938,3.8361 -0.1598,7.67495 -0.13862,11.51254 0,0 -9.92029,5.0184 -9.92029,5.0184 l 0,0 c 0.003,-3.79539 -0.0889,-7.58976 -0.16954,-11.38419 0.0198,-2.30385 0.12959,-4.6115 0.75597,-6.84588 1.05004,-3.61063 2.83202,-6.92441 4.41307,-10.32501 2.31013,-4.69177 4.32578,-9.51698 6.23453,-14.38193 0.60497,-1.80291 1.18567,-3.39705 1.6269,-5.24815 0.83633,-3.50873 1.20447,-7.16517 1.23221,-10.76162 -0.11416,-3.73298 -0.16279,-7.49901 -0.81377,-11.18637 0,0 10.25884,-5.40031 10.25884,-5.40031 z"
       inkscape:connector-curvature="0" />
    <path
       style="opacity:1;fill:#000000;fill-opacity:1;stroke:#000000;stroke-width:3.29385638;stroke-miterlimit:4;stroke-dasharray:none;stroke-opacity:1"
       id="path4243"
       d="m 287.44977,518.30487 c 0.11988,-2.0611 0.0582,-4.12545 0.0853,-6.18815 -0.004,-2.47532 0.30387,-4.95636 0.76204,-7.39369 0.82426,-2.73666 1.5756,-5.48431 2.25125,-8.25498 0.63652,-2.49285 1.07954,-5.02204 1.73612,-7.51015 0.7555,-2.11061 1.56543,-4.20081 2.20737,-6.34384 0.65097,-2.37671 1.42994,-4.69796 2.47017,-6.95657 0.72653,-1.79108 1.77723,-3.44071 2.44438,-5.25145 0.92293,-2.29446 1.82577,-4.59568 2.64138,-6.92389 0.65053,-2.05093 1.05227,-4.16342 1.46418,-6.26384 0.25679,-2.10229 1.23434,-4.04102 1.94262,-6.03447 0.55856,-1.6986 0.68479,-3.47802 1.16188,-5.19307 8.77381,-4.88657 9.71158,-8.5253 13.02465,-2.23361 0.8505,1.98945 1.4088,4.07713 1.90456,6.16116 0.32127,2.13581 0.84347,4.23036 1.32388,6.33971 0.31604,1.99079 0.89899,3.9347 1.25194,5.9181 0.1777,2.16589 0.71689,4.27823 1.23199,6.39166 0.63492,2.20711 1.61001,4.31196 2.24785,6.51679 0.67283,2.44891 0.98414,4.95434 1.39163,7.44546 0.42231,2.29683 0.7449,4.60185 0.90869,6.92554 0.13154,1.96788 0.10679,3.94058 0.0955,5.91104 0.0229,2.05923 -0.0112,4.11807 -0.003,6.17725 -0.003,1.98088 0.007,3.96173 0.0106,5.94262 0.0145,1.76075 0.0597,3.51926 -0.14614,5.27212 0,0 -10.40848,4.63437 -10.40848,4.63437 l 0,0 c 0.44725,-1.69225 0.26726,-3.41488 0.30167,-5.14276 0.004,-1.98505 0.0149,-3.97006 0.0144,-5.95514 0.011,-2.05988 -0.016,-4.11947 0.0112,-6.17935 -0.0125,-1.9516 -0.02,-3.90341 -0.0814,-5.85437 -0.11096,-2.30269 -0.34315,-4.59989 -0.77234,-6.873 -0.43261,-2.44812 -0.71683,-4.91653 -1.38964,-7.32661 -0.62857,-2.21996 -1.55004,-4.36031 -2.29034,-6.55088 -0.47278,-2.13327 -1.08593,-4.24587 -1.30159,-6.41965 -0.33495,-1.98082 -0.87114,-3.92704 -1.13948,-5.91823 -0.47072,-2.10415 -1.17013,-4.16086 -1.38339,-6.30823 -0.43623,-2.00123 -0.95782,-4.01432 -1.77302,-5.9153 -0.37708,-0.65237 -0.72416,-1.4198 -1.35164,-1.9178 -0.54349,-0.43136 -0.7398,0.0292 -0.61149,-0.042 3.19139,-1.77306 6.3833,-3.54535 9.57497,-5.31801 -1.24715,0.96767 -0.7818,3.67604 -1.44263,5.04146 -0.60761,1.98694 -1.6657,3.86057 -1.97793,5.91217 -0.40602,2.15304 -0.85831,4.30771 -1.46534,6.41952 -0.7997,2.30811 -1.65549,4.59778 -2.54715,6.87638 -0.5984,1.89446 -1.61109,3.57706 -2.45721,5.38076 -1.08063,2.20735 -1.99021,4.42972 -2.52873,6.80667 -0.60272,2.17138 -1.33673,4.29809 -2.28042,6.36897 -0.73898,2.46221 -1.05765,5.00555 -1.7386,7.48249 -0.72097,2.75916 -1.34894,5.53275 -2.32998,8.22955 -0.46814,2.3611 -0.64407,4.79403 -0.75401,7.18785 0.027,2.03632 -0.036,4.0744 0.0852,6.10903 0,0 -10.3706,4.81848 -10.3706,4.81848 z"
       inkscape:connector-curvature="0" />
    <path
       style="opacity:1;fill:#000000;fill-opacity:1;stroke:#000000;stroke-width:3.47463441;stroke-miterlimit:4;stroke-dasharray:none;stroke-opacity:1"
       id="path4245"
       d="m 307.33222,491.99101 c 1.99858,0.75464 4.06931,1.26538 6.16487,1.64132 2.18668,0.17724 4.3406,0.51585 6.51095,0.82853 1.56592,0.0772 3.07519,0.47187 4.60832,0.76877 0,0 -9.4397,6.73448 -9.4397,6.73448 l 0,0 c -1.50219,-0.3172 -3.00686,-0.58601 -4.53358,-0.75055 -2.16639,-0.33628 -4.34273,-0.55998 -6.50848,-0.89527 -2.19889,-0.47392 -4.40348,-0.99962 -6.51767,-1.78552 0,0 9.71529,-6.54176 9.71529,-6.54176 z"
       inkscape:connector-curvature="0" />
    <path
       style="opacity:1;fill:#000000;fill-opacity:1;stroke:#000000;stroke-width:3.23550987;stroke-miterlimit:4;stroke-dasharray:none;stroke-opacity:1"
       id="path4253"
       d="m 355.78521,440.97237 c -0.13017,2.36237 -0.14864,4.7294 -0.13952,7.09425 -0.12727,2.57833 -0.45123,5.14365 -0.63009,7.7193 -0.0897,4.1978 -0.53836,8.3658 -1.19369,12.52151 -0.60124,3.64107 -1.03049,7.30266 -1.21716,10.97808 -0.0793,2.3146 -0.0858,4.6307 -0.0819,6.94618 0.0219,1.90243 0.027,3.80488 0.0457,5.70735 -0.009,2.47338 -0.0784,4.94611 -0.101,7.41936 -3.3e-4,2.72019 0.0401,5.44002 0.0579,8.1601 -0.0485,2.1266 0.92967,2.86511 2.63841,4.13775 1.47408,1.22366 2.77645,1.41021 4.68005,0.98962 2.18533,-0.39739 4.28105,-0.92537 6.28044,-1.79853 -17.10286,9.61244 -6.56223,2.94503 -2.77426,0.38779 1.64165,-1.04553 2.70321,-2.3209 3.15666,-4.04288 0.29057,-1.62368 0.25312,-3.27373 0.23532,-4.91196 0.007,-2.06947 -0.64493,-3.97862 -1.74013,-5.7894 -1.54171,-2.23854 -3.95125,-3.5083 -6.46613,-4.7584 -2.33313,-0.97888 -4.76837,-1.72075 -7.05103,-2.79698 -0.62666,-0.41086 -1.10379,-0.65223 -1.56978,-1.19714 -2.63289,-3.07888 6.50227,-5.25188 10.2744,-7.21803 2.40556,-0.54375 4.49363,-1.74553 6.70998,-2.67085 5.00949,-2.50524 -4.86089,2.48186 -7.31722,3.68262 -0.44676,0.2184 0.85843,-0.4882 1.27957,-0.74277 1.57637,-0.95292 3.10941,-1.96391 4.64559,-2.96546 2.43448,-1.69674 5.0179,-3.40927 6.77092,-5.69653 1.04733,-2.22713 0.16354,-3.74716 -1.30534,-5.58532 -1.72307,-1.97823 -3.40682,-3.97713 -4.94288,-6.07164 -1.42618,-2.5141 -3.07378,-3.64754 -5.60985,-5.21457 -2.16067,-1.29394 -4.2695,-2.58481 -6.74985,-3.35146 -1.782,-0.43617 -3.29401,-1.31163 -4.7318,-2.2989 0,0 9.74926,-5.40024 9.74926,-5.40024 l 0,0 c 1.38916,0.89947 2.86232,1.64571 4.53133,2.07948 2.46479,0.93015 4.63171,2.27455 6.83946,3.59888 2.37194,1.51943 4.56562,3.13992 5.84442,5.52992 1.5354,2.08144 3.17863,4.08242 4.90631,6.04335 1.74127,2.16013 2.71136,3.87527 1.95587,6.56858 -0.18778,0.33787 -0.32637,0.70041 -0.56331,1.01358 -0.39321,0.51972 -1.52802,1.47995 -2.00593,1.88871 -1.34048,1.14653 -2.71591,2.26662 -4.22209,3.2464 -5.76646,3.80986 -11.19912,7.2584 -18.01362,9.94395 -2.23365,1.01505 -4.50019,1.94305 -6.8325,2.76984 3.08143,-1.63852 6.1825,-3.24902 9.24435,-4.91558 0.46771,-0.25455 -0.8938,0.005 -0.54683,0.49127 0.32049,0.44956 0.76263,0.65331 1.24669,0.96327 2.30183,1.03565 4.7773,1.72446 7.02443,2.85786 2.6703,1.36698 5.15816,2.84795 6.82658,5.20785 1.23995,1.92779 1.95849,3.96016 2.10908,6.18108 0.009,1.69446 0.0666,3.39562 -0.13424,5.0836 -0.33915,2.04044 -1.04391,3.431 -2.93596,4.76044 -1.173,0.79914 -2.38588,1.55446 -3.55507,2.35702 -0.79986,0.54907 -1.46439,1.25835 -2.33521,1.71693 -3.59474,1.89299 -7.27109,3.66415 -10.90663,5.49621 -2.11018,0.77224 -4.31355,1.31693 -6.57252,1.63972 -2.05277,0.11196 -3.72054,-0.44676 -5.21702,-1.71754 -1.92168,-1.45123 -3.0706,-2.56808 -3.04087,-4.93703 0.0177,-2.73729 0.0583,-5.47433 0.0579,-8.2117 -0.0228,-2.44185 -0.0922,-4.8831 -0.10653,-7.32502 0.0124,-1.91275 0.006,-3.8254 0.0201,-5.7381 0.003,-2.34868 10e-6,-4.69865 0.16879,-7.04404 0.25922,-3.74434 0.74878,-7.46426 1.43631,-11.16818 0.15801,-0.98182 0.62021,-3.75091 0.71565,-4.75023 0.24006,-2.5134 0.15221,-5.04335 0.22862,-7.5615 0.0974,-2.57071 0.3951,-5.11984 0.65969,-7.67988 0.009,-2.32323 -0.007,-4.64891 -0.13952,-6.96952 0,0 10.41008,-4.65247 10.41008,-4.65247 z"
       inkscape:connector-curvature="0" />
    <path
       style="opacity:1;fill:#000000;fill-opacity:1;stroke:#000000;stroke-width:3.37958002;stroke-miterlimit:4;stroke-dasharray:none;stroke-opacity:1"
       id="path4231-8"
       d="m 413.9876,442.22378 c 0.8107,3.66132 1.3646,7.36943 1.91886,11.07298 0.39991,3.52059 0.61595,7.12735 0.30451,10.66877 -0.1656,1.88303 -0.52888,3.53826 -0.88196,5.39382 -1.14598,4.93948 -2.54468,9.8346 -4.13609,14.66059 -1.06066,3.37599 -2.26657,6.70943 -2.88876,10.19067 -0.32903,2.11838 -0.15738,4.24922 0.0658,6.36513 0.39756,3.69609 0.85413,7.38732 1.38173,11.06821 0,0 -9.20368,6.0808 -9.20368,6.0808 l 0,0 c -0.49799,-3.64347 -1.09023,-7.27386 -1.67127,-10.90575 -0.28441,-2.21392 -0.47981,-4.44295 -0.15179,-6.66746 0.56773,-3.5995 1.90256,-7.00732 3.02612,-10.47287 1.67822,-4.79779 3.04595,-9.68615 4.30212,-14.59904 0.36369,-1.80762 0.7308,-3.41177 0.92528,-5.24479 0.36863,-3.47448 0.25212,-7.03109 -0.195,-10.48674 -0.60627,-3.56864 -1.15174,-7.17734 -2.28588,-10.6338 0,0 9.48998,-6.49052 9.48998,-6.49052 z"
       inkscape:connector-curvature="0" />
    <path
       style="opacity:1;fill:#000000;fill-opacity:1;stroke:#000000;stroke-width:3.47463441;stroke-miterlimit:4;stroke-dasharray:none;stroke-opacity:1"
       id="path4245-4"
       d="m 398.56895,452.48226 c 1.93462,-0.90612 3.74475,-2.03404 5.47558,-3.27376 1.65197,-1.4436 3.39675,-2.75118 5.13441,-4.08863 1.14736,-1.06846 2.48276,-1.87492 3.76472,-2.76667 0,0 -1.75642,11.46194 -1.75642,11.46194 l 0,0 c -1.27493,0.85542 -2.51691,1.74636 -3.69954,2.72582 -1.7518,1.31814 -3.42986,2.72193 -5.18051,4.04031 -1.87312,1.24545 -3.78732,2.45888 -5.82497,3.42605 0,0 2.08673,-11.52506 2.08673,-11.52506 z"
       inkscape:connector-curvature="0" />
    <path
       style="opacity:1;fill:#000000;fill-opacity:1;stroke:#000000;stroke-width:3.47463441;stroke-miterlimit:4;stroke-dasharray:none;stroke-opacity:1"
       id="path4245-47"
       d="m 302.30278,493.9286 c 1.99858,0.75464 4.06931,1.26538 6.16487,1.64132 2.18668,0.17724 4.3406,0.51585 6.51095,0.82853 1.56592,0.0772 3.07519,0.47187 4.60832,0.76877 0,0 -9.4397,6.73448 -9.4397,6.73448 l 0,0 c -1.50219,-0.3172 -3.00686,-0.58601 -4.53358,-0.75055 -2.16639,-0.33628 -4.34273,-0.55998 -6.50848,-0.89527 -2.19889,-0.47392 -4.40348,-0.99962 -6.51767,-1.78552 0,0 9.71529,-6.54176 9.71529,-6.54176 z"
       inkscape:connector-curvature="0" />
    <path
       style="opacity:1;fill:#000000;fill-opacity:1;stroke:none;stroke-width:4;stroke-miterlimit:4;stroke-dasharray:none;stroke-opacity:1"
       id="path4487"
       d="m 410.87507,512.1817 c 3.43714,0.24769 6.86753,0.59524 10.31249,0.77919 2.95997,0.29787 5.89787,-0.12368 8.83686,-0.42575 2.75213,-0.33375 5.49009,-0.81356 8.22792,-1.27889 2.09906,-0.32953 1.05563,-0.13599 3.13033,-0.5804 0,0 -10.55074,7.98832 -10.55074,7.98832 l 0,0 c -2.1056,0.39155 -1.0579,0.20869 -3.14294,0.54949 -2.77283,0.49733 -5.55487,1.00171 -8.3617,1.25231 -2.94561,0.26747 -5.89378,0.53239 -8.84733,0.17399 -3.49392,-0.24537 -6.99455,-0.64973 -10.49995,-0.54253 0,0 10.89506,-7.91573 10.89506,-7.91573 z"
       inkscape:connector-curvature="0" />
    <path
       style="opacity:1;fill:#000000;fill-opacity:1;stroke:#000000;stroke-width:4;stroke-miterlimit:4;stroke-dasharray:none;stroke-opacity:1"
       id="path4501"
       d="m 200.49466,232.45586 c 0.76093,-5.62542 1.59453,-11.2498 2.27785,-16.88879 0.63365,-6.68942 2.15633,-13.2528 3.77878,-19.76067 6.18136,-29.03668 6.92978,-13.36396 56.48995,-43.1609 5.11774,2.79193 6.84746,7.86996 8.92594,12.93831 2.60988,6.05099 1.33483,3.01514 3.82536,9.10746 2.70469,6.9923 7.0815,13.16181 10.05311,20.00917 2.22869,4.77781 4.35201,9.99765 8.43183,13.51165 0.37088,0.0523 0.76027,0.284 1.11263,0.15701 0.96212,-0.34675 2.42449,-3.14884 1.52494,-2.66229 -17.18683,9.29596 -33.89076,19.46001 -50.94691,28.99361 -0.86432,0.48311 1.64173,-1.12702 2.34287,-1.8262 0.88497,-0.88251 1.59166,-1.92734 2.38749,-2.89101 4.73917,-6.78213 8.44525,-14.20837 12.09796,-21.61135 2.77221,-5.83906 5.52431,-11.68836 7.99762,-17.66109 9.2559,-22.84254 0.56845,-8.31192 56.36688,-34.36501 1.44264,-0.6736 4.95073,8.73703 5.28735,9.65883 1.19241,4.13313 3.12686,8.02055 4.42535,12.1131 1.20598,4.44264 0.54433,2.25223 1.9809,6.57245 2.2034,5.24179 4.09427,10.78387 7.61173,15.31648 0.45691,0.41809 0.86761,0.8931 1.37073,1.25427 1.28373,0.92155 2.74631,0.77344 3.88182,-0.42316 0.44679,-0.47082 1.56772,-1.98383 0.99868,-1.6716 -17.03673,9.34786 -33.75268,19.26881 -50.62902,28.90321 4.75548,-3.14025 7.39671,-8.28859 10.20804,-13.06486 3.84526,-6.53287 1.91283,-3.39853 6.14992,-9.92157 5.76407,-8.8558 12.03162,-17.35512 18.31956,-25.83924 2.45887,-3.02751 4.06012,-6.67195 6.43603,-9.7516 13.24056,-17.16242 37.38489,-21.95522 56.27744,-32.58222 3.01054,0.86356 6.24504,0.76908 9.27433,1.48048 1.20932,0.28399 2.34791,0.81646 3.54282,1.15601 8.63574,2.45391 -1.92464,-0.91319 5.91307,1.6486 6.09602,3.11359 6.26167,8.80042 7.67792,14.72538 1.14597,3.50252 1.98196,9.66848 4.78279,12.15921 0.22098,-0.10861 0.52269,-0.12344 0.66294,-0.32581 0.12465,-0.17986 1.13182,-3.29689 0.92391,-3.18344 -17.14754,9.35703 -33.72758,19.72149 -50.73886,29.32402 -0.8129,0.45887 1.42991,-1.20381 2.09073,-1.86313 0.82566,-0.82379 1.57536,-1.72037 2.36304,-2.58056 3.87157,-4.60586 7.81559,-9.14695 11.06591,-14.22226 10.93707,-19.69819 3.00782,-6.10211 56.06818,-31.08927 1.02184,-0.48121 1.78565,1.4294 2.44343,2.34758 2.85915,3.99104 3.55695,9.35185 4.62206,13.99085 0.33945,2.0681 0.72475,4.12919 1.01834,6.2043 0.32517,2.29831 0.52897,4.61244 0.83751,6.91304 1.22149,9.1082 2.84382,18.17031 4.30108,27.24321 0.59796,5.7519 1.77279,11.42864 2.50075,17.16129 0.68481,5.39283 1.16649,10.77882 1.97328,16.15978 0.95308,4.71137 1.84256,9.45335 3.21332,14.06757 0.4547,1.53059 1.36764,4.71206 2.61152,6.07295 0.34274,0.37498 0.93046,0.4081 1.39569,0.61215 8.28476,-20.6648 18.77298,-11.25542 -46.5195,23.26892 -1.71799,0.90842 2.7574,-2.74489 4.0234,-4.21932 2.68651,-3.12879 5.02934,-6.53699 7.53923,-9.80916 9.98898,-12.93865 19.92335,-25.9117 30.21693,-38.61075 7.94594,-9.37844 15.43091,-19.10469 21.64473,-29.71871 11.09042,-20.71665 47.68282,-51.78858 58.69933,-27.20892 0.73455,1.6389 1.09332,3.42212 1.58767,5.14873 1.32212,4.61784 2.53598,9.26619 3.85269,13.88558 3.4653,13.01569 7.18373,25.9742 11.58397,38.70677 1.7065,5.16576 4.19054,10.18347 8.35373,13.79019 3.35385,2.02146 4.96392,1.40016 8.03847,-0.72753 0.82902,-0.59213 3.37328,-2.27888 2.48706,-1.77638 -15.6507,8.87407 -31.16988,17.97836 -46.79416,26.89886 -1.67646,0.95716 3.30363,-1.99822 4.94901,-3.00786 3.26448,-2.00317 6.43057,-4.16783 9.74072,-6.09462 18.05523,-10.50965 36.17797,-20.90289 54.26696,-31.35433 1.4659,-0.41969 2.87997,-1.11257 4.39771,-1.25906 4.07385,-0.39319 7.75603,1.78178 9.83369,5.18741 1.44005,2.36049 2.19139,5.81853 2.90958,8.41101 1.82412,5.74936 2.23123,11.79146 3.32218,17.68324 1.0258,5.53993 2.46697,11.05572 3.98323,16.47795 0.67838,1.97714 2.63156,10.9778 4.94389,11.83445 0.57109,0.21157 1.86319,-1.6938 1.9291,-1.77653 4.30016,-3.37698 7.57356,-0.35748 10.3129,3.22854 2.61194,4.71706 3.3891,10.07661 4.17802,15.33133 0.52382,2.15067 -0.29327,7.52771 1.77074,8.87083 3.98343,0.17702 7.98027,0.43326 11.97561,0.54916 1.10974,-0.039 2.2256,0.006 3.32924,-0.11699 3.93126,-0.43671 3.49463,-0.51208 6.91269,-2.45208 1.03997,-0.59025 4.13047,-2.4119 3.09144,-1.81999 -47.85678,27.26267 -65.05617,37.68209 -47.00052,26.76688 18.08548,-10.28469 36.02361,-20.83291 54.25644,-30.85406 2.39305,-1.31527 4.93789,2.45498 5.75811,4.06924 0.8021,1.57863 0.97945,3.06574 1.303,4.75551 0.96146,6.27331 -0.53199,12.54246 -1.86808,18.64337 -2.1609,9.19209 -3.15012,18.59321 -4.80252,27.87322 -1.32151,7.36393 -3.24401,14.60345 -5.61602,21.69429 -2.03098,5.30104 -3.66037,10.67214 -4.69131,16.25043 -0.0624,0.62654 -0.18088,1.25001 -0.18713,1.87961 -0.0135,1.35808 0.62095,2.85315 0.811,4.16501 0.44858,3.09633 0.3562,4.28749 0.43004,7.61752 -0.16072,9.4497 -1.07503,18.87542 -4.08622,27.86004 -3.27288,7.65821 -8.20924,14.41871 -12.52996,21.49204 -1.71716,3.15117 -3.71505,6.18142 -5.27513,9.41943 -0.21211,0.44024 -0.33392,0.91858 -0.49322,1.38056 -0.0267,0.0775 -0.0392,0.31521 -0.0647,0.23728 -0.29003,-0.88853 -0.49378,-1.80295 -0.74067,-2.70443 0.1205,-0.73335 -0.0716,-1.59613 0.3615,-2.20004 0.58404,-0.81428 1.63861,-1.15394 2.45791,-1.73092 -15.31278,8.77358 -30.51415,17.74454 -45.93834,26.32074 -2.00401,1.11428 3.80573,-2.56118 5.65218,-3.9207 4.66165,-3.43234 7.10985,-5.61438 11.55652,-9.35202 3.63073,-3.3288 7.5185,-6.5351 10.66199,-10.36604 0.27177,-0.33121 0.30046,-0.88577 0.67501,-1.09379 18.07437,-10.03844 35.38496,-21.74809 54.52546,-29.56437 2.08855,-0.85289 1.46001,4.26922 2.19001,6.40383 -3.3838,5.52588 -8.15774,10.13393 -12.88023,14.51955 -10.00224,8.65291 -21.20237,15.75006 -31.41899,24.13915 -2.8833,2.36754 -5.66424,4.85708 -8.49636,7.28562 -13.58015,11.2893 -24.67624,24.97534 -35.54193,38.77496 -14.36598,17.07157 -48.51422,50.47884 -59.90416,26.86218 -2.07574,-4.30398 -2.4717,-11.65529 -3.16272,-16.4388 -0.21028,-1.60496 -0.76007,-7.01276 -1.51442,-8.90201 -0.1855,-0.46456 -0.71384,-0.70095 -1.07076,-1.05142 18.25255,-8.81147 35.86345,-19.09909 54.75764,-26.43439 1.85356,-0.71961 -1.15048,3.81417 -1.52339,5.76724 -0.56466,2.95726 -0.85656,5.96013 -1.28484,8.9402 -1.15377,11.85153 -1.64092,23.78265 -1.63049,35.68969 0.0143,16.28683 0.40652,6.92095 0.56319,22.33375 0.032,3.15111 -0.0751,6.3021 -0.1126,9.45315 -0.31362,10.45237 -0.79451,20.9278 -2.52401,31.25391 -5.58519,24.22343 -29.55773,23.88723 -56.63145,38.49553 -0.53518,0.28877 -4.73436,-1.80786 -5.1631,-2.00873 -0.71831,-0.4495 -1.51696,-0.79081 -2.15493,-1.3485 -2.8271,-2.47135 -5.73639,-8.88935 -7.56143,-12.3654 -1.80539,-3.57444 -3.16543,-7.3147 -4.95561,-10.89782 -3.3796,-7.09523 -6.10083,-14.48444 -9.22041,-21.69843 -4.44501,-10.65753 -8.91235,-21.32273 -12.32421,-32.36209 -2.02249,-6.18285 -3.98722,-12.39938 -5.55762,-18.71488 -1.43174,-4.65694 -1.18768,-9.51049 -1.01495,-14.31458 0.28358,-7.55783 0.39815,-15.12075 0.11486,-22.67971 -0.33094,-6.20852 -1.85511,-12.26698 -2.8938,-18.38056 -0.9851,-4.46808 -1.33906,-8.98857 -1.55259,-13.54268 -0.10639,-4.93714 0.0757,-9.8791 0.95125,-14.74207 8.54661,-21.93878 1.14139,-4.49496 55.01771,-34.41116 0.86496,-0.48029 6.49291,1.59502 7.39631,2.12133 0.85509,0.49816 1.5952,1.17161 2.3928,1.75742 4.75873,3.67539 8.93635,7.99423 13.98706,11.29282 4.22848,2.33232 7.3138,6.0477 10.68153,9.40874 0.56771,0.64155 1.15588,1.26556 1.70313,1.92465 1.81653,2.18773 1.39442,1.97871 3.26919,4.00841 1.64402,1.77989 3.50665,3.35173 5.32512,4.9461 2.20741,1.68026 4.01042,3.90301 6.37787,5.37566 0.85916,0.53443 1.78355,0.95717 2.65532,1.47077 2.51355,2.36342 5.67217,3.61012 8.69191,5.117 0.49213,0.26996 1.01243,0.49394 1.47639,0.80988 0.59443,0.40477 1.10727,0.91935 1.68733,1.34446 1.93149,1.41549 3.98984,2.61644 5.99469,3.91843 3.49627,2.53248 6.59113,5.51794 8.91125,9.16084 12.76706,22.90675 -34.63846,46.05939 -56.42716,35.8745 -5.72837,-2.31014 -10.65336,-6.10137 -15.91488,-9.24878 -5.14608,-2.45981 -10.14063,-5.15043 -15.35275,-7.4607 -5.45029,-2.55585 -10.81897,-5.25237 -16.43285,-7.44766 -1.16229,-0.17019 -4.73794,-1.67519 -5.86854,-1.24662 -0.54238,0.20559 -1.6277,1.60948 -1.11719,1.33411 83.85686,-45.23142 67.81606,-36.92993 49.48037,-27.47111 -5.10293,3.46458 -6.8246,9.20984 -8.09765,14.9227 -0.57547,5.7151 -1.67093,11.3454 -2.98133,16.9309 -1.11315,5.80428 -2.044,11.65026 -2.82523,17.51009 -0.49068,6.14589 -2.7125,11.94193 -4.51006,17.78524 -2.71134,9.01518 -4.97895,18.15652 -7.25659,27.28866 -1.82967,5.99872 -4.04611,11.9658 -6.97898,17.52387 -11.16359,21.04121 -38.24572,34.91787 -60.2912,38.03283 -0.56072,0.043 -1.12103,0.16658 -1.68216,0.12915 -0.19132,-0.0128 -3.25959,-0.67165 -3.50557,-0.71593 -1.6348,-0.29435 -3.29268,-0.43203 -4.94418,-0.59147 -5.69065,-1.05236 -10.55214,-4.25297 -15.52493,-7.0305 -5.44089,-2.61967 -9.97595,-6.56197 -14.8168,-10.08186 -1.76145,-1.28079 -5.62812,-3.92463 -7.48078,-5.19914 -4.71843,-3.14458 -9.03931,-6.79181 -13.82483,-9.82242 -1.60722,-0.73914 -2.77097,-2.58198 -4.63647,-2.77381 -1.22126,-0.12558 -2.69369,1.05952 -3.68584,1.58523 -16.50753,13.29208 -2.0655,1.51944 48.11594,-27.00206 1.03403,-0.58771 -2.0868,1.14637 -3.08373,1.79503 -3.0528,1.98631 -5.80308,4.42066 -8.5247,6.82365 -4.75507,4.31912 -9.67244,8.4596 -14.70571,12.45079 -19.20181,15.7725 -40.21258,30.46256 -63.96874,38.36294 -1.06388,0.25052 -2.9181,0.78487 -4.04918,0.66751 -4.41758,-0.45839 -6.92777,-4.3442 -9.02653,-7.74192 -4.86156,-9.54274 -6.60869,-20.21732 -8.75747,-30.60164 -0.34451,-1.49879 -0.99266,-5.27282 -2.02262,-6.83504 -1.63824,-2.48487 -2.66721,3.67895 -2.13607,3.40461 16.73533,-8.64378 32.70839,-18.68973 49.06258,-28.0346 -6.82998,5.65479 -13.44587,11.57831 -20.17474,17.36144 -8.87045,7.45616 -17.51253,15.17578 -25.95617,23.11061 -4.81969,4.71877 -9.6802,9.37658 -14.83687,13.72726 -18.26518,14.22518 -5.65015,4.54814 -56.16325,32.79965 -3.6127,2.02055 -7.19786,-3.02153 -9.0528,-5.22316 -3.77412,-5.51054 -5.23738,-12.03258 -7.07591,-18.33838 -0.9261,-2.67681 -2.05646,-9.14984 -5.7973,-9.50178 -0.45416,-0.0427 -0.90283,0.13138 -1.35425,0.19707 -0.42202,0.23145 -0.88919,0.39495 -1.26604,0.69436 -0.44919,0.35688 -0.77542,0.8463 -1.18224,1.2508 -0.45499,0.45239 -1.961,1.63386 -1.40209,1.31877 88.29274,-49.77651 62.26292,-36.77103 44.22382,-25.06267 -22.8467,3.70724 -38.58192,24.65091 -59.60129,33.42891 -8.13901,3.39898 -16.56137,6.10671 -24.77854,9.29545 -3.6003,1.39713 -7.14267,2.9392 -10.71401,4.40879 -10.3197,4.18839 -20.32835,9.07576 -30.30042,14.01853 -2.34198,1.16083 -11.24115,5.73317 -14.1916,6.80285 -1.74181,0.63148 -3.5927,0.90728 -5.38904,1.36092 -1.44857,0.0175 -2.93153,0.36685 -4.34569,0.0526 -1.30164,-0.28929 -2.50111,-1.00956 -3.56672,-1.81107 -4.41551,-3.32117 -4.75442,-9.13289 -5.33779,-14.12423 -0.60537,-7.82759 0.19428,-15.59226 1.26225,-23.33305 1.71297,-7.03357 4.00702,-13.90676 5.88471,-20.90151 0.56621,-3.91073 2.36569,-8.68769 1.87118,-12.65886 0.99463,3.47651 1.13146,3.40338 -2.23298,4.43588 -1.08856,0.33406 -2.19865,0.60488 -3.26531,1.00336 -1.73008,0.64632 -6.88421,3.04211 -8.35436,3.71381 -4.7415,1.90922 -9.16496,4.55993 -13.89167,6.49693 -1.00441,0.41161 -4.663329,1.93636 -6.133588,1.15308 -1.120251,-0.59682 -1.723709,-1.86372 -2.585564,-2.79557 -0.30782,-1.34304 -0.894885,-2.65154 -0.923461,-4.0291 -0.08375,-4.03725 6.298557,-12.48995 8.682203,-15.72029 4.85032,-6.12706 10.75218,-11.2889 16.6212,-16.4037 6.65207,-5.5574 11.5057,-12.67229 16.20194,-19.85323 3.79661,-5.82328 7.1096,-11.99771 9.14258,-18.66154 1.04498,-4.11095 2.26047,-8.1812 3.12976,-12.33451 4.49612,-22.96914 18.47092,-15.53882 54.77178,-35.51738 0.80051,-0.44057 5.76896,3.84726 6.44282,4.42477 5.10625,4.5623 7.20195,10.33356 8.39761,16.88318 0.59614,8.1915 1.19744,16.31158 2.56658,24.42129 1.20299,6.62457 2.70338,13.19138 3.91564,19.81281 0.52351,4.10309 0.35776,8.27707 1.40808,12.30296 0.6117,2.34466 1.09256,3.34586 1.97832,5.54025 2.38752,3.57564 5.47782,6.43204 7.44278,10.30573 1.51537,3.29637 2.21601,6.8384 2.35106,10.44299 0.15215,3.19668 0.0268,6.39283 0.0345,9.59043 0.23975,3.42508 -0.3689,6.78087 -0.99119,10.13003 -6.37128,4.24797 -38.05625,41.33337 -57.82608,30.04722 -2.29988,-1.31295 -4.40457,-2.99666 -6.6293,-4.4329 -5.17954,-3.05237 -10.06892,-6.51622 -14.47561,-10.60439 -4.65805,-4.16771 -6.36831,-10.01888 -8.16065,-15.77112 -1.16133,-5.82004 -3.3724,-11.24226 -5.74004,-16.64374 -1.98214,-3.7877 -3.06789,-7.86234 -3.7784,-12.05213 -0.77402,-4.93492 -0.96577,-9.95473 -0.88818,-14.94478 0.32428,-6.45002 1.78579,-12.74118 3.03924,-19.05485 2.11438,-8.40028 3.01194,-16.98756 3.88297,-25.58031 0.27945,-5.72938 0.81753,-11.45481 2.08163,-17.05586 1.11889,-5.34001 1.33277,-10.80829 1.5592,-16.243 -0.009,-1.03092 -0.004,-2.06205 -0.0263,-3.09276 -0.0398,-1.80443 -0.0318,-3.61238 -0.17009,-5.41195 -0.0469,-0.61039 -0.0706,-1.23878 -0.27495,-1.81586 -0.0718,-0.20285 -0.50589,-0.61261 -0.50872,-0.39744 -0.0125,0.94926 0.31803,1.87186 0.47705,2.80779 -5.36789,20.42853 -1.04075,1.76634 48.08734,-25.78041 1.33603,-0.74913 -2.43166,1.86328 -3.64331,2.80034 -3.20158,2.47602 -6.41907,4.90105 -9.70229,7.2678 -5.74595,3.89042 -11.2605,8.10448 -16.96895,12.04509 -33.7261,20.91567 -48.72723,32.61436 -81.571718,40.15572 -3.495048,0.92922 -7.138354,1.69434 -10.377051,3.38391 -0.791853,0.4131 -1.499144,0.97157 -2.260533,1.43844 -0.705559,0.43264 -2.857547,1.67151 -2.139653,1.25967 16.746548,-9.60717 33.483825,-19.23049 50.225745,-28.84573 -20.389411,12.43262 -38.928307,39.3535 -63.728077,35.52841 -4.730993,-2.93587 -5.194514,-8.33193 -5.726041,-13.36273 -0.518603,-4.28841 -1.528633,-8.45184 -1.874872,-12.76411 -0.154033,-6.59063 2.661443,-12.56837 5.291468,-18.44484 1.79057,-4.21666 4.909396,-7.83519 6.46302,-12.15704 0.08772,0.42528 0.404781,1.93117 0.37939,2.04962 -0.210476,0.98186 -5.925685,1.946 -6.65822,2.08565 -5.321604,0.57038 -10.56628,2.11363 -15.930257,1.67297 -0.728983,-0.35356 -1.556695,-0.55156 -2.186949,-1.06067 -4.338283,-3.50444 -4.111388,-9.86983 -4.375184,-14.85406 -0.0047,-11.97599 1.542865,-23.88178 2.818879,-35.7699 1.978932,-15.40485 4.222526,-30.78794 4.668543,-46.32852 0.273464,-6.71143 -0.380583,-13.40029 -0.147544,-20.10721 0.865202,-7.22161 1.580092,-14.45867 1.993087,-21.72142 0.05694,-4.71912 0.324082,-9.46176 -0.01229,-14.17831 -0.259054,-3.63237 -0.972461,-7.25333 -1.558879,-10.84263 -0.782988,-4.55741 -1.711878,-9.1884 -1.488454,-13.83164 81.15379,-45.76853 36.730885,-42.6149 56.797598,-29.2657 2.194608,1.45995 2.072097,1.10638 4.468833,2.45115 12.160719,6.82319 -7.746058,-3.9901 6.893409,3.90514 9.03955,4.75381 18.88187,7.55962 28.9189,9.19672 2.52441,0.31849 5.32333,0.79014 7.7355,-0.38198 0.5312,-0.25811 1.92971,-1.35532 1.41383,-1.06781 -53.14179,29.61685 -71.635165,32.62136 -50.742701,29.05864 0.300408,-0.23535 0.67879,-0.39596 0.901223,-0.70605 1.483866,-2.06866 -1.609823,-6.76888 -2.546892,-8.60798 -1.081177,-2.46568 -2.869175,-4.48185 -4.35694,-6.68179 -0.848396,-1.25452 -1.746545,-2.97893 -2.462518,-4.28858 -2.856754,-5.29563 -4.964264,-10.96876 -6.262212,-16.83727 -0.814943,-4.29464 -1.37912,-8.68227 -1.312703,-13.0595 0.148052,-3.86714 -0.06994,-7.73397 -0.105301,-11.60085 1.906873,-24.55109 19.012598,-17.33398 54.976584,-36.85677 0.21855,-0.11863 3.5325,2.01956 3.69463,2.12116 4.8245,3.71197 9.07299,8.06478 13.71051,12.00125 3.64611,3.06523 7.31252,6.17564 11.43116,8.6038 3.58714,1.89019 1.82429,0.89557 5.28896,2.98312 3.40441,1.75323 7.25419,3.73973 11.16541,2.84465 11.67033,-17.99809 1.25291,-1.44987 -50.54171,27.8094 -0.60308,0.34069 1.28089,-0.62146 1.73358,-1.14572 2.50324,-2.89898 2.77055,-7.51744 3.33709,-11.06152 0.52226,-7.40445 0.26465,-14.84049 0.057,-22.25378 -0.21879,-7.67247 0.65039,-15.30814 1.95423,-22.85439 1.27141,-6.29039 2.25689,-12.6358 3.73996,-18.88162 6.1744,-23.88641 18.37837,-15.94115 56.64015,-35.64149 0.20607,-0.1061 4.18286,1.84306 4.32443,1.91064 5.36791,3.37603 8.61687,8.92197 12.30579,13.9022 3.9976,5.34523 7.9093,10.86647 12.62644,15.61168 3.29187,2.87179 6.2721,6.00329 9.06297,9.35772 3.24653,3.65033 6.32762,7.434 9.63314,11.03312 1.58671,1.51056 2.9138,3.20952 4.1702,4.99261 0,0 -52.85853,31.20758 -52.85853,31.20758 l 0,0 c -1.15438,-1.58497 -2.28026,-3.19641 -3.60952,-4.64412 -3.10302,-3.75325 -6.22719,-7.47326 -9.68198,-10.91231 -3.01226,-3.14265 -5.98676,-6.34234 -8.70986,-9.74047 -4.00741,-5.44441 -7.98196,-10.91642 -12.21224,-16.19073 -3.14206,-3.88864 -6.24729,-8.67228 -11.41643,-9.88515 -0.52627,-0.0115 -1.06036,-0.12581 -1.5788,-0.0346 -0.49051,0.0863 -1.81774,0.80575 -1.38674,0.55619 17.27019,-9.99993 34.74234,-19.65208 51.91724,-29.81478 0.43066,-0.25483 -1.02381,-0.16768 -1.5011,-0.0174 -1.0929,0.3442 -1.77788,1.56729 -2.39091,2.37869 -2.72444,5.96989 -4.35277,12.37978 -5.55693,18.81424 -0.56632,2.64944 -1.1423,5.04363 -1.46319,7.73869 -0.54335,4.56338 -0.22285,9.13669 -0.23401,13.71315 -0.20753,7.79495 -0.53872,15.58166 -1.09506,23.35983 -0.0648,4.09654 0.10598,8.27287 -0.3486,12.3531 -0.11075,0.99409 0.3625,2.42656 -0.48257,2.96168 -51.60515,32.67771 -33.75078,35.32811 -56.55583,31.28702 -4.34742,-1.23187 -8.22321,-3.29783 -11.86897,-5.98404 -5.85245,-3.75752 -11.25489,-8.09049 -16.571541,-12.56188 -4.249859,-3.27797 -8.782535,-7.79706 -14.163776,-8.90089 -0.320487,0.0928 -0.696389,0.0758 -0.961461,0.27839 -0.292319,0.22346 -0.926306,1.10581 -0.607952,0.92133 17.43831,-10.10549 34.81964,-20.31229 52.06633,-30.74142 0.36094,-0.21826 -0.86915,-0.12329 -1.2652,0.0218 -0.82122,0.30088 -1.13115,1.21616 -1.48494,1.88537 -0.90015,3.60329 -0.3724,7.48038 -0.4912,11.16164 0.12557,4.12386 -0.25419,8.26337 0.28638,12.37558 0.76757,5.25841 2.1308,10.31218 5.16193,14.76897 2.69741,3.62503 5.4094,7.25887 7.31855,11.38246 2.35014,4.65628 5.2309,9.34731 5.19117,14.73097 -4.01103,25.38733 -41.46902,39.23201 -64.308222,31.23555 -9.630419,-3.32097 -18.9555,-7.45929 -28.678008,-10.52968 -3.581386,-1.22871 -7.265339,-2.74912 -10.973202,-3.59638 -0.69249,-0.15823 -1.410855,-0.41894 -2.110411,-0.29564 -0.42362,0.0747 -0.652938,0.56017 -0.979408,0.84026 17.524325,-10.13997 35.048651,-20.27994 52.572976,-30.41991 -0.443966,-0.15079 -0.863071,-0.45893 -1.331897,-0.45235 -3.074299,0.0431 -1.554169,8.40283 -1.589804,10.07533 0.688153,8.75295 1.183249,17.50474 0.881809,26.29051 0.165327,7.03888 0.616215,14.09953 0.01115,21.13023 -0.923599,7.16319 0.307416,-2.84543 -0.446972,5.02139 -0.538032,5.61064 -1.817588,11.13866 -2.480512,16.73236 -2.487929,15.52865 -4.411426,31.15207 -5.869125,46.81045 -0.535767,11.07318 -0.795081,22.12839 0.456857,33.16733 0.09426,1.19615 0.31813,6.98238 1.443238,7.84444 0.348188,0.26678 1.011048,-1.29903 1.290475,-0.25757 4.917127,-0.47321 9.817322,-1.25201 14.656146,-2.2403 5.99488,-1.16351 11.1153,-2.00556 13.24034,5.17649 -0.0908,1.9481 0.0325,2.87423 -0.77935,4.74853 -0.33949,0.7838 -0.9075,1.44761 -1.34072,2.18376 -1.52697,2.59469 -2.9061,5.29141 -4.84683,7.61905 -1.44264,2.7198 -2.62492,5.50513 -3.86766,8.32069 -0.62995,1.42722 -1.48777,3.23566 -1.81457,4.79681 -0.1544,0.73761 -0.14788,1.49993 -0.22182,2.24989 0.0243,4.27944 1.45096,8.29268 2.02781,12.50102 0.0398,1.00224 0.0183,5.04674 0.812,5.79153 0.2992,0.28074 -0.72106,-1.82738 0.11459,-1.22553 16.09618,-13.03385 2.41922,-1.88724 -50.371386,28.77057 -0.616972,0.3583 1.354518,-0.47898 1.965543,-0.84733 2.007014,-1.20992 3.690083,-3.04459 5.607472,-4.38253 18.10013,-10.45213 36.158809,-20.97637 54.300381,-31.35639 1.23238,-0.70513 3.33537,-1.35118 4.65513,-1.70458 3.08231,-0.82536 6.2622,-1.22563 9.37484,-1.90797 4.99453,-1.15153 9.87626,-2.4107 14.6486,-4.32727 19.34109,-7.76738 48.49375,-30.90618 -35.32579,21.45623 5.87578,-3.5187 10.93136,-8.16574 16.74281,-11.80045 3.4627,-2.24599 7.01735,-4.48342 10.29278,-6.99908 1.06394,-0.81715 1.92483,-1.90305 3.06876,-2.60386 54.16127,-33.18127 33.3192,-32.26312 57.93281,-32.64718 1.00425,0.99196 2.20223,1.82021 3.01276,2.97587 1.79263,2.55596 0.62329,10.636 0.75643,13.78439 0.10739,5.59289 0.32672,11.21693 -0.27794,16.78886 -0.91049,5.8965 -3.67818,11.39634 -3.89102,17.45246 -0.35979,2.88585 -0.81483,5.75974 -1.14382,8.64927 -0.64708,5.6835 -0.88204,11.41572 -2.11506,17.02454 -0.89308,5.95924 -2.05826,11.88756 -2.35987,17.90521 -0.43723,4.55158 -0.0932,9.14859 0.37022,13.68864 0.66467,3.845 2.01426,7.42527 3.34335,11.0821 1.59998,5.75524 3.53902,11.41289 4.96152,17.22062 1.69344,4.75237 3.52169,9.35221 7.22412,12.93891 3.86914,3.90799 8.65854,6.69036 13.42851,9.36478 1.906,0.88007 4.16447,2.27909 6.39705,1.87523 1.20599,-0.21816 2.40618,-1.82601 1.73609,-1.43897 -17.38848,10.04371 -34.61817,20.35985 -51.92726,30.53978 0.47907,0.10141 0.95608,0.39536 1.43721,0.30424 1.57299,-0.2979 2.02446,-4.71249 2.01153,-5.90554 0.0435,-3.11715 6.8e-4,-6.23343 0.0439,-9.35066 -0.087,-2.79614 0.0453,-5.64819 -0.88442,-8.33422 -1.80514,-4.08346 -5.38137,-7.04936 -6.87124,-11.32735 -2.01568,-6.13456 -3.90165,-12.31192 -4.18426,-18.80448 -0.75803,-6.81335 -1.48,-13.63391 -2.46291,-20.41802 -1.38717,-7.90944 -2.70109,-15.83649 -3.60533,-23.81719 -0.83616,-4.72409 -1.91232,-9.57659 -6.49696,-12.01411 -0.9577,-0.28792 -1.90991,-0.93712 -2.84248,-0.11588 -0.3187,0.28066 -0.95839,1.34225 -0.59153,1.12834 17.27743,-10.07409 34.3254,-20.53668 51.4881,-30.80502 -1.71408,0.30405 -1.00435,-0.10506 -2.12693,1.23124 -0.69918,1.79021 -1.08557,3.63099 -1.69343,5.45466 -0.5204,1.56124 -1.18276,3.07291 -1.69837,4.63574 -0.30112,0.91272 -0.53457,1.8464 -0.80186,2.76961 -0.51317,1.7586 -1.34917,4.77546 -2.02529,6.43954 -2.0107,4.94879 -4.85287,9.58304 -7.40468,14.25468 -4.7709,7.32776 -9.35932,14.90755 -15.50518,21.18683 -5.48284,5.25932 -11.56492,9.88756 -16.72333,15.48715 -2.36429,2.63781 -4.33262,5.28836 -6.26811,8.24888 -0.43911,0.67167 -0.93322,1.30901 -1.33166,2.00558 -0.26865,0.46966 -0.13634,1.35767 -0.66302,1.48163 -0.53025,0.1248 -0.84786,-0.68417 -1.27179,-1.02625 -0.42647,-0.48161 -1.1855,-0.80842 -1.27939,-1.44482 -0.0532,-0.36041 0.66316,-0.30258 1.00172,-0.43712 0.74961,-0.29787 1.51561,-0.55389 2.26198,-0.85979 4.46303,-1.8292 8.79076,-3.96568 13.20804,-5.89889 4.53727,-1.94158 9.03254,-3.9179 13.89612,-4.91083 2.38686,-0.48728 5.0001,-1.22362 7.19635,0.55187 1.02034,0.82487 1.4136,2.21082 2.1204,3.31623 -0.25891,5.09299 -1.31993,10.04878 -2.7802,14.93131 -1.81344,6.90683 -4.12586,13.64344 -6.07341,20.5109 -1.7174,7.12342 -2.94573,14.43922 -2.19439,21.78927 0.19127,1.77561 0.34635,7.27114 2.62445,8.07052 1.09356,0.38372 3.32262,-0.11571 4.16353,-0.22923 5.36743,-1.66737 10.3705,-3.91345 15.50708,-6.20273 9.56894,-4.2647 19.12179,-8.56952 28.82254,-12.53046 7.37881,-3.09432 14.81912,-6.04335 22.15903,-9.22883 21.6268,-9.3859 68.011,-36.00452 -24.13789,16.1592 0.97375,-0.55871 1.9475,-1.11741 2.92125,-1.67611 0.77102,-0.57793 1.48157,-1.24684 2.31305,-1.73378 18.09047,-10.5943 36.17995,-21.19381 54.43604,-31.50011 1.18353,-0.66815 3.4582,-0.52414 4.66563,-0.24517 0.7659,0.17696 1.46718,0.56485 2.20076,0.84728 0.72078,0.47551 1.49547,0.87797 2.16233,1.42654 4.09749,3.3706 5.58986,8.49122 6.83707,13.42514 1.6726,5.20397 2.65352,10.92956 6.31063,15.19395 1.99541,1.2621 1.59833,1.19069 3.27097,-0.10932 0.43657,-0.33931 1.86679,-1.18484 1.38817,-0.908 -53.00493,30.65822 -67.11773,38.05332 -47.66881,27.80309 6.16283,-4.00806 11.33808,-9.22643 16.93967,-13.95679 8.6329,-7.49004 17.02467,-15.22979 25.43235,-22.96921 6.35364,-5.73489 13.25569,-10.88052 18.97457,-17.28017 18.14623,-10.73358 35.86,-22.23441 54.43869,-32.20073 2.26447,-1.21476 5.34769,1.51509 6.38257,3.0712 2.1176,3.18417 1.22805,7.37007 1.91295,10.89942 0.93002,9.56044 2.5639,19.41384 8.85659,27.05436 0.58774,0.53316 1.10812,1.15165 1.76322,1.59948 2.33234,1.59442 5.26804,-0.79512 7.41103,-1.66581 17.96189,-10.75652 11.1273,-6.65418 -48.43367,28.16696 -0.70621,0.41287 1.48365,-0.70081 2.17105,-1.14432 1.53036,-0.98738 2.41188,-2.00034 3.79199,-3.16793 0.64912,-0.54916 1.32902,-1.06088 1.99353,-1.59132 2.42402,-1.83864 5.027,-3.52463 7.37764,-5.45052 0.91524,-0.74987 1.697,-1.65481 2.62157,-2.39315 8.74665,-6.98492 -2.87938,3.08896 5.72195,-4.50306 19.24622,-18.02762 41.375,-36.61437 67.99067,-41.28599 0.77631,0.021 1.56345,-0.068 2.32892,0.0629 3.40703,0.58269 5.8573,3.42675 8.60223,5.24876 4.33751,3.3922 8.02215,7.50075 12.28313,10.9899 6.76268,5.50897 13.97549,10.51683 21.95593,14.11568 5.09374,2.0766 10.15449,4.24942 15.7749,4.15601 3.09596,0.19778 6.02162,0.74627 8.78972,-1.01393 17.64003,-11.3731 10.39602,-6.67558 -50.07945,29.00218 -0.48533,0.28632 1.11506,-0.23215 1.62054,-0.48117 1.69285,-0.834 3.14265,-2.39579 4.33864,-3.79386 3.45014,-5.48769 6.61582,-11.09554 9.25478,-17.03424 3.04258,-8.69297 5.14095,-17.6889 6.4715,-26.80355 0.28024,-1.10402 0.56047,-2.20803 0.84071,-3.31204 0.23869,-1.02666 0.45884,-2.05781 0.71606,-3.07998 0.88645,-3.5226 2.44917,-6.84274 2.78588,-10.50358 1.03355,-5.89616 1.76522,-11.84422 2.67997,-17.7519 0.9673,-5.62769 2.90178,-11.05141 3.12605,-16.81468 0.85577,-6.52673 2.72474,-12.77334 5.81745,-18.60316 16.40115,-21.37582 41.98667,-41.35523 64.96514,-29.11968 5.23289,2.83681 10.57168,5.44163 16.10481,7.64667 5.29688,2.52917 10.65463,4.98316 15.54448,8.26087 4.69414,3.07845 9.77736,6.12154 15.48933,6.59664 2.19045,-0.48595 1.21025,-0.10758 2.97487,-1.04199 -17.52404,10.17116 -35.04808,20.34232 -52.57211,30.51348 -0.57303,0.35756 0.95129,0.97402 1.51625,1.3442 0.28941,0.18964 0.69577,0.47647 0.99361,0.30037 0.2562,-0.15147 0.006,-0.59522 0.008,-0.89284 -1.5291,-3.08917 -4.82903,-4.76521 -7.55415,-6.67738 -2.89365,-1.92566 -5.60694,-4.16242 -8.87623,-5.44344 -3.16374,-1.64457 -5.96167,-3.8612 -9.01966,-5.68315 -3.30229,-2.34671 -6.03246,-5.34701 -8.96829,-8.12057 -3.6271,-3.54038 -7.05996,-7.23578 -10.43638,-11.01037 -3.18021,-3.08307 -6.38113,-6.17649 -9.87282,-8.90702 -4.39803,-3.64378 -8.66239,-7.58886 -13.75033,-10.26015 -1.74045,-0.41397 -3.49971,-0.92634 -5.227,-0.0738 -0.54831,0.27062 -1.9994,1.40428 -1.47294,1.0933 51.691,-30.53414 69.36007,-34.79855 48.39259,-29.49455 -0.43174,0.48427 -1.008,0.87106 -1.29521,1.4528 -1.45416,2.94528 -0.25801,7.63101 -0.53885,10.84237 -0.0281,4.42919 0.0628,8.87047 0.39196,13.28741 0.79574,6.4949 2.40596,12.85309 2.85535,19.3947 -0.28339,7.46106 -0.24457,14.9323 0.2108,22.38683 0.33245,4.3327 0.67159,8.66663 1.18863,12.98161 1.01553,6.54325 1.35301,13.18432 3.01173,19.62561 2.59179,10.95423 6.6799,21.4787 11.36903,31.70062 0.87757,1.66722 1.69542,3.36726 2.63271,5.00165 2.90908,5.07267 6.50329,9.72603 9.4191,14.7934 2.01204,3.59611 3.41587,7.38808 4.65969,11.30689 1.52666,3.38965 2.98044,8.11923 7.1561,8.81847 0.49677,-0.0937 1.04199,-0.0476 1.49031,-0.28121 0.47914,-0.24968 1.64808,-1.38143 1.18057,-1.11061 -16.94512,9.81642 -33.88033,19.65373 -50.64928,29.76814 -0.57935,0.34943 1.37986,-0.117 1.98649,-0.41657 1.59085,-0.78561 1.9723,-2.10443 2.77306,-3.56527 4.35415,-10.42602 6.66863,-21.61843 8.3942,-32.74172 0.40552,-3.22307 0.93218,-6.43319 1.21654,-9.6692 1.6632,-18.92722 0.7793,-38.07295 -0.89449,-56.95552 -0.41969,-2.56468 -0.70501,-5.15499 -1.25908,-7.69403 -0.34393,-1.57607 -2.78491,-3.74994 -1.4289,-4.62372 17.52956,-11.29559 36.64469,-19.91657 54.96703,-29.87486 -0.22723,0.73674 -0.57794,1.44624 -0.68169,2.21021 -0.43656,3.21472 -0.0531,5.97385 0.17205,9.21131 0.58827,4.14108 0.57018,5.809 2.06201,9.6645 0.36018,0.93083 0.78434,1.87 1.43131,2.63 0.15886,0.18661 0.94123,-0.21509 0.72946,-0.0917 -46.80462,27.26227 -67.90699,37.97269 -46.20145,26.86825 1.60184,-1.43698 3.29607,-2.7772 4.80552,-4.31094 1.38642,-1.40872 10.57275,-12.00629 11.51337,-13.03251 7.46942,-8.14923 15.46633,-15.7959 23.31238,-23.57487 6.81039,-6.42123 13.6861,-12.67736 21.02007,-18.50326 4.0679,-3.23142 5.91554,-4.33323 9.77253,-7.53315 1.1663,-0.96762 2.26626,-2.01253 3.39939,-3.0188 4.05699,-3.58768 7.82673,-7.40005 11.29973,-11.55682 15.34537,20.92752 1.60661,5.25735 56.98345,-25.23706 0.79802,-0.43944 -1.62677,0.83586 -2.36521,1.36939 -4.85972,3.51117 -9.10695,7.87548 -13.64874,11.75913 -4.65744,4.19292 -5.90702,5.3761 -10.60214,9.38088 -1.53547,1.30971 -2.92176,2.83347 -4.64608,3.88214 -18.15567,11.04168 -36.52342,21.73336 -54.93061,32.35042 -1.32743,0.76565 -2.71659,1.60699 -4.23941,1.77821 -1.30614,0.14686 -2.56409,-0.57939 -3.84613,-0.86908 -0.88825,-1.19331 -2.04816,-2.22613 -2.66476,-3.57994 -1.62542,-3.56882 5.43745,-12.25259 7.09758,-15.22196 4.03607,-6.81556 8.1024,-13.59994 12.14166,-20.41 4.09472,-7.75576 6.80383,-16.35666 5.71318,-25.21449 -0.68273,-2.93049 -0.67771,-3.30745 -1.55371,-5.85694 -0.32267,-0.93906 -1.19779,-2.95264 -1.39039,-3.88112 -0.32281,-1.5561 -0.16586,-3.2765 -0.11626,-4.83643 0.96847,-6.03081 2.75038,-11.87835 4.95604,-17.56698 2.74376,-6.99684 5.17221,-14.12809 6.96663,-21.43265 2.28471,-9.07621 2.96065,-18.40366 4.57174,-27.61016 0.82063,-5.20655 1.41471,-10.44219 0.87102,-15.71194 -0.0606,-0.4391 -0.11695,-0.87879 -0.18167,-1.31729 -0.0192,-0.12991 -0.13947,-0.4991 -0.07,-0.38768 0.53764,0.86227 0.54936,1.74508 -0.50228,2.18715 16.88797,-9.73608 33.77594,-19.47216 50.66391,-29.20824 -18.58561,10.68711 -44.99735,25.87708 -56.79956,32.48252 -1.00155,0.56055 -2.13253,0.86627 -3.24232,1.15896 -3.93434,1.03764 -8.04263,1.11288 -12.07938,1.21488 -5.66227,-0.13949 -11.74147,-0.009 -16.10956,-4.16244 -0.44887,-0.65766 -0.97298,-1.26983 -1.34659,-1.97297 -1.69448,-3.18902 -1.42136,-6.89541 -1.53448,-10.36636 -0.16783,-3.93795 -0.30774,-8.34607 -2.77127,-11.61244 -0.19228,-0.1006 -0.36118,-0.27781 -0.57686,-0.3018 -0.54704,-0.0609 -1.3158,0.48411 -1.72932,0.63896 -1.68986,0.63281 -3.39637,0.85772 -5.18232,0.48295 -0.85026,-0.43323 -1.79662,-0.71499 -2.55078,-1.29969 -5.00755,-3.88233 -4.65385,-11.57104 -5.85075,-17.12666 -1.91224,-11.10573 -3.5871,-22.42062 -7.59742,-32.99661 -0.63173,-1.20528 -1.25308,-2.41606 -1.89519,-3.61584 -0.34187,-0.63878 -0.59032,-1.34488 -1.05654,-1.89945 -2.02554,-2.40932 -6.18772,0.39474 -8.09347,1.19522 15.20331,-8.85149 30.3706,-17.76514 45.60994,-26.55446 1.64869,-0.95089 -3.22248,2.0261 -4.83485,3.03735 -3.06455,1.92203 -6.01294,4.03121 -9.13354,5.86083 -18.25342,10.70206 -36.49881,21.42058 -54.89663,31.87245 -1.19148,0.67689 -2.55405,0.99399 -3.83108,1.49099 -1.04573,0.0979 -2.08731,0.3234 -3.13719,0.29366 -3.78584,-0.10721 -6.82619,-2.2638 -9.21662,-5.00549 -3.94511,-5.18536 -6.60847,-11.06037 -7.68341,-17.52863 -1.04068,-5.68062 -1.78693,-11.42473 -2.93671,-17.08391 -1.5443,-7.60099 -3.73922,-15.04326 -6.26059,-22.37334 -1.91476,-4.48099 -3.16256,-7.96331 -5.74474,-12.04345 -0.72355,-1.14328 -1.50772,-2.28244 -2.51444,-3.1864 -0.17148,-0.15398 -0.64273,0.64571 -0.44283,0.531 40.33754,-23.1491 68.89529,-40.23239 48.60626,-28.10727 -3.58331,4.21551 -6.56386,8.79726 -9.98634,13.13898 -4.93716,6.26324 -10.26186,12.23451 -15.25137,18.45651 -5.23528,6.52335 -10.65547,12.90756 -15.66704,19.60715 -2.90376,3.88183 -6.13837,8.57754 -8.95267,12.54927 -1.30296,1.83881 -2.61775,3.66922 -3.92662,5.50383 -4.44171,6.14691 -2.63068,3.46916 -6.60994,9.62665 -0.88043,1.36238 -1.28032,3.19555 -2.63106,4.09374 -17.56841,11.68233 -35.55171,22.74903 -53.76102,33.40487 -1.06366,0.62244 -2.50284,0.54272 -3.69093,0.21523 -1.28593,-0.35446 -2.24534,-1.44066 -3.36801,-2.161 -0.55523,-0.92469 -1.22334,-1.79037 -1.66569,-2.77407 -0.98288,-2.18569 -1.58908,-5.32052 -2.06129,-7.60803 -1.01888,-4.9356 -1.80069,-9.91521 -2.75533,-14.86297 -0.49006,-3.65803 -1.11831,-7.29687 -1.59334,-10.95689 -0.71343,-5.49678 -0.86507,-11.03151 -1.34225,-16.54662 -0.18171,-2.10018 -0.45103,-4.19186 -0.67654,-6.28779 -1.55712,-13.12267 -3.1933,-26.27128 -6.81689,-39.0216 -1.25438,-3.31422 -1.5182,-4.85109 -3.58948,-7.56845 -0.29746,-0.39023 -0.67673,-0.81112 -1.15744,-0.90952 -0.34602,-0.0708 -1.25246,0.65308 -0.94508,0.47911 52.56167,-29.74864 71.73533,-33.16712 50.13761,-29.06842 -2.55175,2.25226 -3.53578,3.99145 -5.56087,6.6797 -2.44638,3.24749 -1.62457,2.04628 -4.21843,5.15006 -0.71786,0.85899 -1.41308,1.73666 -2.11962,2.605 -15.70925,21.20143 1.2422,4.02112 -57.27887,37.14231 -1.97343,1.1169 -5.54034,-2.39687 -6.56588,-3.63392 -2.5012,-4.58314 -3.62025,-9.70742 -5.00786,-14.70855 -1.14356,-4.83896 -0.0565,-0.58579 -1.48943,-5.28184 -0.63243,-2.07264 -0.99556,-3.30805 -3.21779,-4.08971 -4.27132,-1.54689 -9.72812,-2.83523 -14.26043,-1.67645 -0.77451,0.19802 -1.45306,0.66705 -2.17958,1.00058 16.81226,-9.70364 33.73217,-19.2231 50.43678,-29.11092 0.65297,-0.38651 -1.51651,0.24498 -2.2059,0.56201 -3.99545,1.83741 -5.73856,6.75679 -8.55068,9.79543 -6.66823,8.53034 -13.87566,16.6769 -19.50659,25.96847 -1.0526,1.51716 -2.17431,2.98864 -3.15781,4.55149 -3.78381,6.01278 -6.11309,12.78423 -9.64353,18.93092 -18.10745,10.61424 -35.97776,21.6438 -54.32235,31.84272 -0.81673,0.45408 -4.18798,-0.67804 -4.87355,-1.01766 -2.3947,-1.18628 -4.17961,-3.12444 -5.62924,-5.31751 -1.01445,-1.6686 -2.03295,-3.25115 -2.87188,-5.02234 -1.8465,-3.89844 -2.88022,-8.13156 -4.6853,-12.04715 -2.36869,-6.00374 -4.12136,-12.20695 -6.66267,-18.14007 -0.39729,-0.75579 -0.7345,-1.54635 -1.19189,-2.26735 -0.27437,-0.43251 -0.48982,-1.06964 -0.99125,-1.17409 -0.30914,-0.0644 -0.47743,1.08016 -0.20212,0.92551 17.44699,-9.80103 34.74153,-19.87296 51.99062,-30.01824 0.56007,-0.32942 -1.35318,0.1506 -1.87277,0.54074 -0.6355,0.47718 -0.93923,1.28222 -1.40884,1.92334 -3.13898,5.90997 -5.90481,12.02228 -8.63819,18.1282 -3.85186,7.44402 -8.20094,14.63437 -11.84477,22.19452 -0.51649,1.06324 -1.03677,2.12466 -1.54949,3.18973 -0.4338,0.90116 -0.4403,2.18145 -1.29003,2.70891 -17.83314,11.06974 -35.92866,21.73593 -54.33669,31.8208 -0.80131,0.439 -1.83016,-0.24433 -2.67784,-0.5853 -1.66605,-0.67015 -2.70184,-1.8853 -3.95635,-3.08178 -3.49211,-4.86846 -5.59846,-10.4626 -8.44303,-15.70527 -2.99739,-6.91746 -6.28699,-13.71809 -8.83267,-20.82091 -1.73686,-4.18738 -3.27871,-8.27565 -6.21962,-11.80108 -0.26488,-0.31751 -1.81243,-2.47287 -2.91432,-1.56194 -0.38931,0.32183 -0.39217,0.93099 -0.58825,1.39648 17.09397,-10.33616 34.17374,-20.69584 51.28191,-31.00848 0.44345,-0.26731 -0.90929,0.51606 -1.28593,0.87137 -0.4402,0.41527 -0.81939,0.90014 -1.13759,1.4149 -1.31537,2.12787 -1.84582,4.66728 -2.50886,7.03641 -1.74805,6.26693 -4.02959,12.48973 -4.27939,19.05741 -0.5787,5.03875 -1.60558,10.28182 -0.75942,15.3204 0,0 -55.5583,28.30837 -55.5583,28.30837 z"
       inkscape:connector-curvature="0" />
  </g>
</svg>
